<svg width="31" height="30" viewBox="0 0 31 30" fill="none" xmlns="http://www.w3.org/2000/svg">
<g id="Shopping cart" clip-path="url(#clip0_190_515)">
<path id="Icon" d="M1.75 1.25H6.75L10.1 17.9875C10.2143 18.563 10.5274 19.0799 10.9844 19.4479C11.4415 19.8158 12.0134 20.0112 12.6 20H24.75C25.3366 20.0112 25.9085 19.8158 26.3656 19.4479C26.8226 19.0799 27.1357 18.563 27.25 17.9875L29.25 7.5H8M13 26.25C13 26.9404 12.4404 27.5 11.75 27.5C11.0596 27.5 10.5 26.9404 10.5 26.25C10.5 25.5596 11.0596 25 11.75 25C12.4404 25 13 25.5596 13 26.25ZM26.75 26.25C26.75 26.9404 26.1904 27.5 25.5 27.5C24.8096 27.5 24.25 26.9404 24.25 26.25C24.25 25.5596 24.8096 25 25.5 25C26.1904 25 26.75 25.5596 26.75 26.25Z" stroke="#1E1E1E" stroke-width="4" stroke-linecap="round" stroke-linejoin="round"/>
</g>
<defs>
<clipPath id="clip0_190_515">
<rect width="30" height="30" fill="white" transform="translate(0.5)"/>
</clipPath>
</defs>
</svg>
