<svg width="31" height="30" viewBox="0 0 31 30" fill="none" xmlns="http://www.w3.org/2000/svg">
<g id="Heart" clip-path="url(#clip0_190_513)">
<path id="Icon" d="M26.5497 5.76234C25.9112 5.1236 25.1532 4.6169 24.3189 4.2712C23.4845 3.92549 22.5903 3.74756 21.6872 3.74756C20.7841 3.74756 19.8898 3.92549 19.0555 4.2712C18.2211 4.6169 17.4631 5.1236 16.8247 5.76234L15.4997 7.08734L14.1747 5.76234C12.885 4.47273 11.136 3.74823 9.31216 3.74823C7.48837 3.74823 5.73928 4.47273 4.44966 5.76234C3.16005 7.05196 2.43555 8.80105 2.43555 10.6248C2.43555 12.4486 3.16005 14.1977 4.44966 15.4873L15.4997 26.5373L26.5497 15.4873C27.1884 14.8489 27.6951 14.0909 28.0408 13.2565C28.3865 12.4222 28.5644 11.5279 28.5644 10.6248C28.5644 9.72173 28.3865 8.82747 28.0408 7.99315C27.6951 7.15882 27.1884 6.40079 26.5497 5.76234Z" stroke="#1E1E1E" stroke-width="4" stroke-linecap="round" stroke-linejoin="round"/>
</g>
<defs>
<clipPath id="clip0_190_513">
<rect width="30" height="30" fill="white" transform="translate(0.5)"/>
</clipPath>
</defs>
</svg>
